<svg width="372" height="96" viewBox="0 0 372 96" fill="none" xmlns="http://www.w3.org/2000/svg">
<g filter="url(#filter0_d_480_563)">
<path d="M30.448 24.304C36.208 24.304 40.9653 25.8187 44.72 28.848C48.5173 31.8773 50.9707 35.9733 52.08 41.136H40.496C39.6427 39.0453 38.32 37.4027 36.528 36.208C34.7787 35.0133 32.688 34.416 30.256 34.416C27.056 34.416 24.4747 35.5893 22.512 37.936C20.5493 40.2827 19.568 43.4187 19.568 47.344C19.568 51.2693 20.5493 54.4053 22.512 56.752C24.4747 59.056 27.056 60.208 30.256 60.208C32.688 60.208 34.7787 59.6107 36.528 58.416C38.32 57.2213 39.6427 55.6 40.496 53.552H52.08C50.9707 58.672 48.5173 62.768 44.72 65.84C40.9653 68.8693 36.208 70.384 30.448 70.384C26.0533 70.384 22.192 69.424 18.864 67.504C15.536 65.5413 12.9547 62.8107 11.12 59.312C9.328 55.8133 8.432 51.824 8.432 47.344C8.432 42.864 9.328 38.8747 11.12 35.376C12.9547 31.8773 15.536 29.168 18.864 27.248C22.192 25.2853 26.0533 24.304 30.448 24.304ZM69.1575 22.64V70H58.2135V22.64H69.1575ZM90.2815 33.84C93.0122 33.84 95.3588 34.4587 97.3215 35.696C99.2842 36.9333 100.735 38.6187 101.674 40.752V34.288H112.554V70H101.674V63.536C100.735 65.6693 99.2842 67.3547 97.3215 68.592C95.3588 69.8293 93.0122 70.448 90.2815 70.448C87.3375 70.448 84.6922 69.7227 82.3455 68.272C80.0415 66.7787 78.2068 64.6453 76.8415 61.872C75.5188 59.0987 74.8575 55.856 74.8575 52.144C74.8575 48.3893 75.5188 45.1467 76.8415 42.416C78.2068 39.6427 80.0415 37.5307 82.3455 36.08C84.6922 34.5867 87.3375 33.84 90.2815 33.84ZM93.8015 43.44C91.4548 43.44 89.5562 44.208 88.1055 45.744C86.6975 47.28 85.9935 49.4133 85.9935 52.144C85.9935 54.8747 86.6975 57.008 88.1055 58.544C89.5562 60.08 91.4548 60.848 93.8015 60.848C96.1055 60.848 97.9828 60.0587 99.4335 58.48C100.927 56.9013 101.674 54.7893 101.674 52.144C101.674 49.456 100.927 47.344 99.4335 45.808C97.9828 44.2293 96.1055 43.44 93.8015 43.44ZM133.081 33.84C137.603 33.84 141.209 34.9707 143.897 37.232C146.627 39.4933 148.334 42.48 149.017 46.192H138.777C138.478 44.7413 137.795 43.6107 136.729 42.8C135.705 41.9467 134.403 41.52 132.825 41.52C131.587 41.52 130.649 41.7973 130.009 42.352C129.369 42.864 129.049 43.6107 129.049 44.592C129.049 45.7013 129.625 46.5333 130.777 47.088C131.971 47.6427 133.827 48.1973 136.345 48.752C139.075 49.392 141.315 50.0533 143.065 50.736C144.814 51.376 146.329 52.4427 147.609 53.936C148.889 55.4293 149.529 57.4347 149.529 59.952C149.529 62 148.974 63.8133 147.865 65.392C146.755 66.9707 145.155 68.208 143.065 69.104C140.974 70 138.499 70.448 135.641 70.448C130.819 70.448 126.958 69.3813 124.057 67.248C121.155 65.1147 119.385 62.064 118.745 58.096H129.305C129.475 59.632 130.115 60.8053 131.225 61.616C132.377 62.4267 133.849 62.832 135.641 62.832C136.878 62.832 137.817 62.5547 138.457 62C139.097 61.4027 139.417 60.6347 139.417 59.696C139.417 58.4587 138.819 57.584 137.625 57.072C136.473 56.5173 134.574 55.9413 131.929 55.344C129.283 54.7893 127.107 54.192 125.401 53.552C123.694 52.912 122.222 51.888 120.985 50.48C119.747 49.0293 119.129 47.0667 119.129 44.592C119.129 41.392 120.345 38.8107 122.777 36.848C125.209 34.8427 128.643 33.84 133.081 33.84ZM168.581 33.84C173.103 33.84 176.709 34.9707 179.397 37.232C182.127 39.4933 183.834 42.48 184.517 46.192H174.277C173.978 44.7413 173.295 43.6107 172.229 42.8C171.205 41.9467 169.903 41.52 168.325 41.52C167.087 41.52 166.149 41.7973 165.509 42.352C164.869 42.864 164.549 43.6107 164.549 44.592C164.549 45.7013 165.125 46.5333 166.277 47.088C167.471 47.6427 169.327 48.1973 171.845 48.752C174.575 49.392 176.815 50.0533 178.565 50.736C180.314 51.376 181.829 52.4427 183.109 53.936C184.389 55.4293 185.029 57.4347 185.029 59.952C185.029 62 184.474 63.8133 183.365 65.392C182.255 66.9707 180.655 68.208 178.565 69.104C176.474 70 173.999 70.448 171.141 70.448C166.319 70.448 162.458 69.3813 159.557 67.248C156.655 65.1147 154.885 62.064 154.245 58.096H164.805C164.975 59.632 165.615 60.8053 166.725 61.616C167.877 62.4267 169.349 62.832 171.141 62.832C172.378 62.832 173.317 62.5547 173.957 62C174.597 61.4027 174.917 60.6347 174.917 59.696C174.917 58.4587 174.319 57.584 173.125 57.072C171.973 56.5173 170.074 55.9413 167.429 55.344C164.783 54.7893 162.607 54.192 160.901 53.552C159.194 52.912 157.722 51.888 156.485 50.48C155.247 49.0293 154.629 47.0667 154.629 44.592C154.629 41.392 155.845 38.8107 158.277 36.848C160.709 34.8427 164.143 33.84 168.581 33.84ZM190.065 24.24C190.065 22.576 190.662 21.2107 191.857 20.144C193.051 19.0347 194.63 18.48 196.593 18.48C198.555 18.48 200.134 19.0347 201.329 20.144C202.523 21.2107 203.121 22.576 203.121 24.24C203.121 25.8613 202.523 27.2267 201.329 28.336C200.134 29.4027 198.555 29.936 196.593 29.936C194.63 29.936 193.051 29.4027 191.857 28.336C190.662 27.2267 190.065 25.8613 190.065 24.24ZM202.033 34.288V70H191.089V34.288H202.033ZM225.717 33.84C230.325 33.84 234.186 35.12 237.301 37.68C240.415 40.1973 242.378 43.6747 243.189 48.112H231.605C231.263 46.576 230.559 45.3813 229.493 44.528C228.426 43.6747 227.082 43.248 225.461 43.248C223.541 43.248 221.962 44.016 220.725 45.552C219.487 47.0453 218.869 49.2427 218.869 52.144C218.869 55.0453 219.487 57.264 220.725 58.8C221.962 60.2933 223.541 61.04 225.461 61.04C227.082 61.04 228.426 60.6133 229.493 59.76C230.559 58.9067 231.263 57.712 231.605 56.176H243.189C242.378 60.6133 240.415 64.112 237.301 66.672C234.186 69.1893 230.325 70.448 225.717 70.448C222.218 70.448 219.103 69.7227 216.373 68.272C213.685 66.7787 211.573 64.6453 210.036 61.872C208.501 59.0987 207.733 55.856 207.733 52.144C207.733 48.3893 208.479 45.1467 209.973 42.416C211.509 39.6427 213.642 37.5307 216.373 36.08C219.103 34.5867 222.218 33.84 225.717 33.84ZM262.469 33.84C265.2 33.84 267.546 34.4587 269.509 35.696C271.472 36.9333 272.922 38.6187 273.861 40.752V34.288H284.741V70H273.861V63.536C272.922 65.6693 271.472 67.3547 269.509 68.592C267.546 69.8293 265.2 70.448 262.469 70.448C259.525 70.448 256.88 69.7227 254.533 68.272C252.229 66.7787 250.394 64.6453 249.029 61.872C247.706 59.0987 247.045 55.856 247.045 52.144C247.045 48.3893 247.706 45.1467 249.029 42.416C250.394 39.6427 252.229 37.5307 254.533 36.08C256.88 34.5867 259.525 33.84 262.469 33.84ZM265.989 43.44C263.642 43.44 261.744 44.208 260.293 45.744C258.885 47.28 258.181 49.4133 258.181 52.144C258.181 54.8747 258.885 57.008 260.293 58.544C261.744 60.08 263.642 60.848 265.989 60.848C268.293 60.848 270.17 60.0587 271.621 58.48C273.114 56.9013 273.861 54.7893 273.861 52.144C273.861 49.456 273.114 47.344 271.621 45.808C270.17 44.2293 268.293 43.44 265.989 43.44ZM314.548 33.84C317.492 33.84 320.116 34.5867 322.42 36.08C324.767 37.5307 326.601 39.6427 327.924 42.416C329.289 45.1467 329.972 48.3893 329.972 52.144C329.972 55.856 329.289 59.0987 327.924 61.872C326.601 64.6453 324.767 66.7787 322.42 68.272C320.116 69.7227 317.492 70.448 314.548 70.448C311.817 70.448 309.471 69.8293 307.508 68.592C305.545 67.3547 304.116 65.6693 303.22 63.536V87.024H292.276V34.288H303.22V40.752C304.116 38.6187 305.545 36.9333 307.508 35.696C309.471 34.4587 311.817 33.84 314.548 33.84ZM311.028 43.44C308.724 43.44 306.825 44.2293 305.332 45.808C303.881 47.344 303.156 49.456 303.156 52.144C303.156 54.7893 303.881 56.9013 305.332 58.48C306.825 60.0587 308.724 60.848 311.028 60.848C313.375 60.848 315.252 60.08 316.66 58.544C318.111 57.008 318.836 54.8747 318.836 52.144C318.836 49.4133 318.111 47.28 316.66 45.744C315.252 44.208 313.375 43.44 311.028 43.44ZM369.571 51.184C369.571 52.08 369.464 53.0613 369.251 54.128H344.483C344.611 56.816 345.294 58.7573 346.531 59.952C347.768 61.104 349.347 61.68 351.267 61.68C352.888 61.68 354.232 61.2747 355.299 60.464C356.366 59.6533 357.07 58.608 357.411 57.328H368.995C368.526 59.8453 367.502 62.1067 365.923 64.112C364.344 66.0747 362.339 67.632 359.907 68.784C357.475 69.8933 354.766 70.448 351.779 70.448C348.28 70.448 345.166 69.7227 342.435 68.272C339.747 66.7787 337.635 64.6453 336.099 61.872C334.563 59.0987 333.795 55.856 333.795 52.144C333.795 48.3893 334.542 45.1467 336.035 42.416C337.571 39.6427 339.704 37.5307 342.435 36.08C345.166 34.5867 348.28 33.84 351.779 33.84C355.32 33.84 358.435 34.5653 361.123 36.016C363.811 37.4667 365.88 39.5147 367.331 42.16C368.824 44.7627 369.571 47.7707 369.571 51.184ZM358.499 49.52C358.542 47.1733 357.902 45.424 356.579 44.272C355.299 43.0773 353.699 42.48 351.779 42.48C349.774 42.48 348.11 43.0773 346.787 44.272C345.464 45.4667 344.718 47.216 344.547 49.52H358.499Z" fill="url(#paint0_linear_480_563)"/>
</g>
<g filter="url(#filter1_d_480_563)">
<path d="M13 79L82.2784 79L164.199 79L228.42 79L280 79" stroke="url(#paint1_linear_480_563)" stroke-width="10" stroke-linecap="round"/>
</g>
<defs>
<filter id="filter0_d_480_563" x="0.432007" y="18.48" width="369.139" height="76.544" filterUnits="userSpaceOnUse" color-interpolation-filters="sRGB">
<feFlood flood-opacity="0" result="BackgroundImageFix"/>
<feColorMatrix in="SourceAlpha" type="matrix" values="0 0 0 0 0 0 0 0 0 0 0 0 0 0 0 0 0 0 127 0" result="hardAlpha"/>
<feOffset dx="-4" dy="4"/>
<feGaussianBlur stdDeviation="2"/>
<feComposite in2="hardAlpha" operator="out"/>
<feColorMatrix type="matrix" values="0 0 0 0 0 0 0 0 0 0 0 0 0 0 0 0 0 0 0.25 0"/>
<feBlend mode="normal" in2="BackgroundImageFix" result="effect1_dropShadow_480_563"/>
<feBlend mode="normal" in="SourceGraphic" in2="effect1_dropShadow_480_563" result="shape"/>
</filter>
<filter id="filter1_d_480_563" x="0" y="74" width="285" height="18" filterUnits="userSpaceOnUse" color-interpolation-filters="sRGB">
<feFlood flood-opacity="0" result="BackgroundImageFix"/>
<feColorMatrix in="SourceAlpha" type="matrix" values="0 0 0 0 0 0 0 0 0 0 0 0 0 0 0 0 0 0 127 0" result="hardAlpha"/>
<feOffset dx="-4" dy="4"/>
<feGaussianBlur stdDeviation="2"/>
<feComposite in2="hardAlpha" operator="out"/>
<feColorMatrix type="matrix" values="0 0 0 0 0 0 0 0 0 0 0 0 0 0 0 0 0 0 0.25 0"/>
<feBlend mode="normal" in2="BackgroundImageFix" result="effect1_dropShadow_480_563"/>
<feBlend mode="normal" in="SourceGraphic" in2="effect1_dropShadow_480_563" result="shape"/>
</filter>
<linearGradient id="paint0_linear_480_563" x1="6" y1="48" x2="372" y2="48" gradientUnits="userSpaceOnUse">
<stop stop-color="#B3B2C0"/>
<stop offset="1" stop-color="#A4AA64"/>
</linearGradient>
<linearGradient id="paint1_linear_480_563" x1="10.9747" y1="29643.9" x2="323.159" y2="29643.9" gradientUnits="userSpaceOnUse">
<stop stop-color="#121215"/>
<stop offset="1" stop-color="#E4E3EF"/>
</linearGradient>
</defs>
</svg>
